<svg width="580" height="400" xmlns="http://www.w3.org/2000/svg">
 <!-- Created with Method Draw - http://github.com/duopixel/Method-Draw/ -->
 <defs>
  <filter id="svg_1_blur">
   <feGaussianBlur stdDeviation="0.9" in="SourceGraphic"/>
  </filter>
 </defs>
 <g>
  <title>background</title>
  <rect fill="#e5e5e5" id="canvas_background" height="402" width="582" y="-1" x="-1"/>
  <g display="none" overflow="visible" y="0" x="0" height="100%" width="100%" id="canvasGrid">
   <rect fill="url(#gridpattern)" stroke-width="0" y="0" x="0" height="100%" width="100%"/>
  </g>
 </g>
 <g>
  <title>Layer 1</title>
  <path filter="url(#svg_1_blur)" id="svg_1" d="m220.134866,242.707686c-0.044958,-47.365123 -0.089893,-94.730259 -0.134852,-142.095376c40.587502,0.544391 81.347135,-1.289646 121.797203,1.397912c19.725272,6.138677 16.882586,44.35268 16.562256,72.895573c-0.86529,21.524848 11.524832,64.195283 -20.656598,70.609018c-16.044164,0.000757 -16.107304,6.009445 -14.469658,16.878795c1.900467,16.283666 -3.616754,52.76113 -29.973544,29.640374l-73.124815,-49.32629l0.000008,-0.000007zm124.21732,-15.483649c0.065218,-42.575187 -0.478795,-78.897946 -3.171488,-106.948907c-23.924473,-9.541482 -56.253077,-4.898048 -83.322277,-5.043044c-10.64084,4.537759 25.24182,19.605312 32.852189,25.451781c28.891706,12.57082 37.511743,35.432074 32.522684,61.268673c0,10.050323 0,20.100673 0,30.150996c5.327892,-0.005652 16.350483,-2.32019 21.118899,-4.879526l-0.000008,0.000027z" stroke="#000" fill="#f4d4d4"/>
 </g>
</svg>