<svg width="580" height="400" xmlns="http://www.w3.org/2000/svg">
 <!-- Created with Method Draw - http://github.com/duopixel/Method-Draw/ -->
 <defs>
  <filter id="svg_1_blur">
   <feGaussianBlur stdDeviation="0"/>
  </filter>
 </defs>
 <g>
  <title>background</title>
  <rect x="-1" y="-1" width="582" height="402" id="canvas_background" fill="#d2efef"/>
  <g id="canvasGrid" display="none">
   <rect id="svg_2" width="100%" height="100%" x="0" y="0" stroke-width="0" fill="url(#gridpattern)"/>
  </g>
 </g>
 <g>
  <title>Layer 1</title>
  <path fill="#e85f73" stroke-width="1.5" d="m295.95923,134.83861c3.03529,-5.81287 8.58867,-13.38507 -0.95267,-15.21184c-2.65784,-1.4429 -5.31655,-3.99609 -7.97097,-1.15188c-5.90599,2.46729 -11.02577,5.91769 -4.81379,12.37518c2.7547,4.17025 5.26019,13.26932 8.38057,14.27143c1.86236,-3.38196 3.60697,-6.83497 5.35686,-10.2829l0,0.00001zm-13.04726,16.05006c-5.42176,-10.23342 -9.7848,-21.212 -16.42079,-30.6525c-8.07102,-9.11304 -23.97386,-5.05075 -27.58782,6.70381c-4.80071,11.62141 5.55765,25.49698 17.28384,24.0424c8.89837,0.15761 17.84736,0.58136 26.72477,-0.09371zm45.05349,0.34546c11.53149,-1.63468 18.16288,-16.98691 11.59729,-27.18042c-5.81821,-10.87828 -22.55693,-11.25751 -28.40052,-0.20278c-5.05994,8.93723 -9.4517,18.27625 -14.09492,27.4585c10.26526,0.62069 20.62706,0.47591 30.89815,-0.07531l0,0.00001zm19.0973,13.08923c3.93115,-3.65803 19.15422,-7.97054 7.62502,-11.44459c-2.85604,-0.85708 -6.18579,-4.78897 -8.75264,-3.71298c-5.57381,7.32867 -14.14407,11.62802 -23.0922,11.17769c-1.75169,0.60892 -10.68618,-0.9261 -8.27217,0.81742c6.31258,3.80649 12.46619,7.94036 18.99563,11.31899c4.57336,-2.5758 9.01192,-5.41321 13.49636,-8.15654l0,0.00001zm-89.81354,2.07103c3.36179,-2.07103 6.72357,-4.14206 10.08534,-6.21309c-10.27587,-0.53997 -22.03569,1.02638 -29.80162,-7.71402c-2.18953,-2.5927 -4.28912,-5.56106 -7.32371,-2.29695c-3.6348,2.6482 -14.81501,5.36198 -6.20685,8.59471c7.49577,4.68266 14.93883,9.47956 22.61986,13.81578c3.66011,-1.81514 7.11027,-4.0837 10.62698,-6.18642l0,-0.00001zm49.26775,23.10837c4.3565,-3.70171 14.9086,-7.22841 15.26113,-11.20068c-9.8496,-5.99399 -19.4123,-12.66765 -29.71693,-17.734c-3.54621,-1.42279 -6.42136,0.76646 -9.2758,2.66796c-8.44069,5.3095 -17.08447,10.28948 -25.2505,16.06235c10.67968,6.98384 21.48773,13.76117 32.40091,20.32894c5.56632,-3.30166 11.06067,-6.73827 16.58119,-10.12456l0,-0.00001zm43.7061,11.55417c4.51961,-3.01571 9.03923,-6.03141 13.55886,-9.04714c-0.037,-10.10059 0.11554,-20.2054 -0.14576,-30.30247c-9.12186,5.38266 -18.11399,11.03408 -26.95436,16.91878c-0.96687,10.41773 -0.47652,21.00774 -0.26638,31.47798c4.66479,-2.90638 9.21625,-6.01491 13.80764,-9.04715zm-105.99777,-6.36353c0.45902,-8.60992 1.44852,-18.42474 -8.36993,-20.97525c-6.2004,-3.0582 -14.7947,-10.8939 -19.57147,-10.81531c-0.14883,9.70144 -0.07006,19.40466 -0.08617,29.10694c9.15902,6.04452 18.15552,12.38003 27.51221,18.07796c0.90726,-5.00097 0.31417,-10.30227 0.51536,-15.39434zm65.58763,33.33653c5.4174,-3.61687 10.8348,-7.23374 16.2522,-10.85061c-0.02509,-10.42768 0.38264,-20.87035 -0.06297,-31.28683c-5.95375,1.80554 -12.76339,7.38652 -19.036,10.85307c-4.69682,2.90948 -9.39366,5.81898 -14.09049,8.72848c0.09262,11.13421 -0.2532,22.28876 0.34252,33.40648c5.61488,-3.46946 11.08052,-7.20608 16.59474,-10.85059l0,0zm-22.70933,-5.85266c0,-5.56775 0,-11.1355 0,-16.70323c-10.87531,-6.72108 -21.71582,-13.50587 -32.63353,-20.14967c-0.60375,10.6471 -0.25873,21.33423 -0.34978,31.99973c10.87289,7.19899 21.63312,14.59458 32.64355,21.55642c0.42844,-5.54802 0.272,-11.14031 0.33976,-16.70325zm63.38979,22.38218c4.43213,-3.1211 8.86425,-6.24222 13.2964,-9.36332c-0.18493,-9.89537 0.45656,-19.92465 -0.47643,-29.71082c-9.21715,5.56123 -18.11262,11.89256 -27.1655,17.82935c0.21748,10.23844 -0.44654,20.59409 0.55354,30.74504c4.67596,-3.03515 9.20947,-6.31113 13.79199,-9.50025zm-106.36595,-5.54751c-0.03608,-5.18827 -0.0722,-10.37655 -0.10828,-15.56482c-9.15662,-6.05821 -18.19789,-12.31909 -27.49207,-18.13911c-0.58165,9.93994 -0.25012,19.91863 -0.3376,29.87632c9.23729,6.46627 18.37066,13.10391 27.7318,19.36834c0.35867,-5.1648 0.18067,-10.36453 0.20615,-15.54073zm65.91961,34.09514c5.38022,-3.77873 10.76044,-7.55746 16.14066,-11.33618c-0.01249,-10.53653 0.18993,-21.07759 -0.07779,-31.61051c-10.95198,7.14134 -21.83071,14.41411 -32.6292,21.81211c-1.22039,10.17404 -0.42911,20.6638 -0.43089,30.94905c3.35153,2.15885 11.92078,-7.40892 16.99722,-9.81448l0,0.00001zm-22.94345,-4.51049c-0.6506,-7.26529 2.79809,-17.49159 -5.93354,-20.30812c-8.80553,-5.89804 -17.57566,-11.86045 -26.49706,-17.56106c-1.30032,9.9745 0.05965,20.36561 -0.93924,30.46214c10.69845,8.17874 21.67646,15.99746 32.85447,23.42287c0.89652,-5.20354 0.33892,-10.71547 0.51537,-16.01584l0,0.00001zm-37.41562,-1.92062c-13.02148,-9.19248 -26.04296,-18.38496 -39.06442,-27.57742c0.01476,-28.36927 -0.35588,-56.74535 0.12024,-85.10929c6.52053,-4.25473 13.45942,-7.74257 20.16999,-11.64619c-4.33435,-13.12137 1.91926,-29.06662 14.48728,-33.97809c10.53555,-4.57151 23.23531,-0.44605 29.95222,9.17778c4.87878,-2.64608 9.75757,-5.29215 14.63635,-7.93823c4.90497,2.67002 9.80998,5.34003 14.71494,8.01004c7.02839,-8.8166 19.06987,-13.84803 29.50489,-8.90695c12.52557,4.65586 19.35289,20.56547 14.861,33.66624c6.75994,4.03609 14.10959,7.19003 20.30769,12.11509c0.27477,28.20124 0.00246,56.40664 -0.02246,84.60961c-25.90958,18.1329 -51.39929,36.95798 -77.72952,54.40144c-7.65639,-0.00218 -14.26495,-8.79356 -21.36954,-12.35796c-6.86863,-4.80227 -13.71992,-9.63223 -20.56869,-14.46606l0.00003,-0.00001z" id="svg_1" stroke="#e24d4d" filter="url(#svg_1_blur)"/>
 </g>
</svg>