<?xml version="1.0" standalone="no"?><!DOCTYPE svg PUBLIC "-//W3C//DTD SVG 1.1//EN" "http://www.w3.org/Graphics/SVG/1.1/DTD/svg11.dtd"><svg t="1514874025655" class="icon" style="" viewBox="0 0 1024 1024" version="1.1" xmlns="http://www.w3.org/2000/svg" p-id="4442" xmlns:xlink="http://www.w3.org/1999/xlink" width="16" height="16"><defs><style type="text/css"></style></defs><path d="M248.986931 1024c-16.896 0-33.28-5.12-47.616-15.36-26.624-18.432-39.424-49.664-34.304-81.92l40.96-251.904c1.536-10.24-1.536-20.48-8.704-27.648L23.706931 466.432C1.690931 443.904-5.477069 411.136 4.250931 381.44c9.728-29.696 35.328-51.2 66.048-55.808l237.568-36.352c10.752-1.536 19.456-8.192 24.064-17.92L436.890931 48.128C450.714931 18.432 479.386931 0 512.154931 0c32.768 0 61.44 18.432 75.264 48.128L691.866931 271.36c4.608 9.728 13.824 16.384 24.064 17.92l237.568 36.352c30.72 4.608 56.32 26.112 66.048 55.808 10.24 29.696 2.56 62.464-19.456 84.992L824.474931 647.168c-7.168 7.168-10.24 17.92-8.704 27.648l40.96 251.904c5.12 31.744-8.192 63.488-34.304 81.92-26.112 18.432-59.904 20.48-88.064 4.608L527.514931 898.56c-9.728-5.12-20.992-5.12-30.72 0L289.434931 1013.76c-12.8 6.656-26.624 10.24-40.448 10.24zM512.154931 51.2c-12.8 0-23.552 7.168-29.184 18.432L379.034931 292.864c-11.776 25.088-35.328 43.008-62.976 47.104l-237.568 36.352c-12.288 2.048-21.504 9.728-25.6 21.504-4.096 11.776-1.024 24.064 7.68 32.768l175.616 180.736c18.432 18.944 26.624 45.568 22.528 71.68l-40.96 251.904c-2.048 12.8 3.072 24.576 13.312 31.744 10.24 7.168 23.04 7.68 33.792 1.536l207.36-115.2c25.088-13.824 55.296-13.824 80.384 0l207.36 115.2c10.752 6.144 23.552 5.632 33.792-1.536 10.24-7.168 15.36-18.944 13.312-31.744l-40.96-251.904c-4.096-26.112 4.096-52.736 22.528-71.68l175.616-180.736c8.704-8.704 11.264-20.992 7.68-32.768-4.096-11.776-13.312-19.968-25.6-21.504l-237.568-36.352c-27.648-4.096-51.2-22.016-62.976-47.104l-104.448-223.232c-5.632-11.264-16.384-18.432-29.184-18.432z" p-id="4443" fill="#c66"></path></svg>