<svg viewBox="0 0 580 344" xmlns="http://www.w3.org/2000/svg">
 <!-- Created with Method Draw - http://github.com/duopixel/Method-Draw/ -->

 <g>
  <title>background</title>
  <rect fill="#f2f7f7" id="canvas_background" height="346" width="582" y="-1" x="-1"/>
 </g>
 <g>
  <title>Layer 1</title>
  <path id="svg_4" d="m139.037367,146.276461c-10.251472,0 -18.612173,8.060022 -18.612173,17.938261s8.360701,17.938261 18.612173,17.938261c10.251472,0 18.612173,-8.060022 18.612173,-17.938261s-8.360701,-17.938261 -18.612173,-17.938261zm47.208761,17.853263c-1.313926,-6.722229 -3.802908,-11.278857 -6.149459,-14.763773c0.178039,0.476728 0.32047,0.957151 0.491387,1.433878c-8.332215,-23.485301 -41.675316,-36.216515 -67.430404,-20.066906c-0.199403,0.997802 -0.259937,1.988213 -0.259937,2.971232c0,-0.188474 -0.021365,-0.362165 -0.014243,-0.554334c-6.206432,-0.495205 -13.723229,7.616555 -20.406804,22.480108c-3.393419,8.414796 -4.621887,17.627834 -1.474161,28.429964c1.83736,6.30463 4.72871,12.771865 8.898378,17.790439c12.359452,14.882031 31.292095,20.953841 42.316255,17.868046c0.014243,0.003696 0.032047,0.011087 0.049851,0.014782c21.254269,-0.461945 37.366777,-15.624839 43.174402,-35.36284c2.090175,-7.125045 2.225485,-12.956643 0.804735,-20.240597zm-83.649737,35.307406c-3.418344,-4.109466 -6.249161,-9.796937 -8.186223,-16.452645c-2.610048,-8.943262 -2.179195,-17.184367 1.349534,-25.924372c3.58214,-7.956547 7.078822,-13.185768 10.087677,-16.330692c0.534116,2.742108 1.855164,6.016376 3.963143,9.789546c0.776249,1.400618 1.634396,2.590589 2.464057,3.739909c0.637379,0.875848 1.267636,1.751697 1.826678,2.694065c0.441536,0.746504 0.851025,1.644525 1.260515,2.72363c-0.851025,10.17758 3.176212,18.987801 11.209321,24.682663l-9.065734,8.315016l-0.719277,0.631941c-0.740641,0.631941 -1.591667,1.378445 -2.318065,2.176686c-4.842655,5.336393 -0.890194,10.462138 1.018382,12.927078l0.242133,0.321514c0.843904,1.097582 1.826678,2.291249 2.902032,3.466438c-5.636708,-2.838192 -11.291219,-7.051134 -16.034172,-12.760778zm79.444461,-16.149609c-5.697241,19.335184 -21.140324,32.151396 -39.417784,32.73899c-8.848527,-2.154513 -15.532102,-6.578102 -19.890492,-13.145117c0.014243,-0.014782 0.035608,-0.029565 0.053412,-0.048042l17.604474,-14.176179c7.926286,-0.45825 13.723229,-3.28166 17.259079,-8.418492c4.351268,-5.218135 6.38091,-11.179077 6.028393,-17.96413c6.469929,1.393227 12.067468,3.337093 17.287565,6.958745l0.41305,0.288254l0.477144,0.158909c0.555481,0.181083 1.107401,0.280863 1.634396,0.299341c0.388125,4.582498 -0.074776,8.621748 -1.449236,13.307721zm0.907998,-17.121542c-6.947073,-4.826405 -14.46387,-6.899616 -23.479753,-8.444361c1.890772,8.714137 -0.299105,15.048331 -4.721588,20.369942c-3.140604,4.56402 -8.481767,6.733315 -15.646047,6.92918l-18.587248,14.97442c-1.769705,1.511485 -2.104418,3.026666 -1.004139,4.541847c3.023098,4.719234 6.868736,8.137629 11.116741,10.635829c-0.04629,0 -0.09258,0.007391 -0.13887,0.011087c-0.003561,-0.003696 -0.014243,-0.007391 -0.021365,-0.014782c-0.071216,0.011087 -0.145992,0.014782 -0.220768,0.018478c-0.284862,0.003696 -0.569724,-0.003696 -0.851025,-0.036956c-0.555481,-0.077607 -1.118083,-0.236516 -1.634396,-0.436076c-3.197576,-1.230622 -6.729866,-4.996401 -9.247334,-8.274365c-2.068811,-2.697761 -4.294295,-5.295741 -1.463479,-8.407405c0.91868,-1.008889 2.072371,-1.899519 2.809452,-2.579503l8.976715,-8.237409c0.612453,-0.506292 1.246271,-1.023671 1.905015,-1.563223c0.188721,-0.155214 0.381003,-0.310427 0.576846,-0.469336c2.008277,-1.633439 1.719855,-1.18258 -0.384564,-2.372551c-8.613516,-4.878143 -13.092971,-13.355764 -11.942841,-23.61095c-0.530556,-1.515181 -1.128766,-2.926886 -1.844482,-4.153812c-1.292561,-2.217338 -2.969687,-4.07251 -4.251566,-6.367455c-3.204698,-5.750296 -6.576752,-14.420086 0.04629,-13.607062c-0.017804,-0.195865 -0.007122,-0.406512 -0.017804,-0.606072c0.334713,7.394821 5.433743,14.128136 6.202871,18.063911c0.27774,1.411705 1.046868,2.605372 2.179195,1.034758c9.037248,-12.546435 21.610346,-11.282553 29.654138,-4.848578c1.577424,1.256491 2.43557,2.79015 3.859881,4.102075c0.548359,0.509988 1.167934,0.957151 1.905015,1.297143c2.645656,1.226927 6.434321,1.153016 9.282942,1.603874c4.881823,0.768677 9.639019,1.714741 14.139839,3.000797c0.890194,0.110867 1.509769,-0.014782 1.855164,-0.373252c0.751324,-0.768677 -0.007122,-3.277964 -0.430854,-4.667496c0.986335,2.974928 1.908576,5.94616 2.752479,8.924784c0.6445,2.320813 0.491387,4.194464 -1.374459,3.562522z" stroke-opacity="null" stroke-width="0" stroke="#000000" fill="#ff7f00"/>
  <path stroke="#000000" id="svg_5" d="m335.262036,193.166099c1.640433,-3.304579 2.914424,-6.825121 3.750051,-10.510206c3.263743,-12.549858 2.280853,-23.495419 2.280853,-23.495419l-1.119878,7.212483c0,0 -1.606186,-13.355435 -3.575392,-18.350011c-3.017165,-7.647838 -4.359649,-7.589562 -4.363074,-7.57585c1.85619,4.727193 1.691804,7.435302 1.654132,7.843233c-0.034247,-0.054848 -0.065069,-0.109696 -0.092467,-0.161115c-0.448636,-1.110668 -2.72949,-6.235507 -7.619968,-9.865745c-8.568611,-8.504834 -20.353019,-13.759937 -33.373746,-13.763365c-13.890602,0 -26.387349,5.981836 -35.062125,15.511638c-1.095905,-1.587158 -1.989753,-3.513686 -2.071946,-5.642466c0,0 -0.006849,0.006856 -0.020548,0.01714c0,-0.037708 -0.010274,-0.071988 -0.010274,-0.106268c0,0 -5.513774,4.274699 -4.917876,15.809873c-1.023987,1.967664 -1.917835,4.0176 -2.660995,6.139524c-1.284264,2.800665 -2.568528,6.869685 -3.626762,12.841237c0,0 0.455486,-1.44661 1.366457,-3.386851c-0.219181,1.652289 -0.352745,3.328575 -0.397266,5.028856c-0.308223,2.896648 -0.404115,6.393195 -0.133563,10.585622c0,0 0.109591,-1.391762 0.46576,-3.499974c2.856204,23.495419 22.832505,41.701454 47.065715,41.701454l0,0c6.36995,0 12.452226,-1.268355 18.000247,-3.551394c12.606337,-4.607214 20.065344,-13.434279 24.462665,-22.782397zm-42.459487,-65.519104c8.376827,0 16.198853,2.331031 22.877026,6.376055c-7.787778,-1.809977 -11.757011,-0.894704 -11.722764,-0.850141c0.044521,0.05142 11.5892,2.019084 13.633749,4.836889c0,0 -4.900752,0 -9.780956,1.405474c-0.222606,0.065132 17.952301,2.272755 21.668106,20.451367c0,0 -1.993178,-4.158147 -4.455541,-4.867741c1.619885,4.932872 1.202071,14.294703 -0.34247,18.949909c-0.198633,0.59647 -0.404115,-2.58813 -3.438403,-3.959324c0.972616,6.982808 -0.061645,18.058632 -4.904177,21.10954c-0.373293,0.239959 3.037713,-10.931849 0.688366,-6.616014c-14.017316,21.514043 -30.681928,8.703657 -37.44572,4.141008c5.428157,1.330059 11.18851,0.370223 14.527597,-1.916244c3.36306,-2.303607 5.356238,-3.98332 7.147358,-3.589102c1.787696,0.401074 2.979493,-1.39519 1.589063,-2.989204c-1.387005,-1.597442 -4.767189,-3.787925 -9.33232,-2.594986c-3.219222,0.846713 -7.215853,4.411818 -13.308402,0.798721c-5.198702,-3.08176 -5.16103,-5.587618 -5.16103,-7.181631c0,-1.254643 0.880149,-3.016628 2.513733,-3.52397c1.986329,0.212535 3.575392,0.733589 5.263771,1.597442c0.017124,-0.462778 0.020548,-1.079816 -0.003425,-1.779125c0.133563,-0.263955 0.051371,-1.066104 -0.160961,-2.04308c-0.123289,-0.983832 -0.332196,-1.995088 -0.650694,-2.917216c0.034247,-0.006856 0.05822,-0.023996 0.071919,-0.071988c0.260278,-1.179227 7.352841,-5.292811 7.873396,-5.687029c0.52398,-0.39079 1.883588,-1.295779 1.732901,-4.055308c-0.051371,-0.908416 -0.198633,-1.007828 -7.643941,-0.980404c-3.140454,0.010284 -4.880204,-3.06462 -5.441856,-4.267843c0.760284,-4.219851 2.95552,-7.233051 6.572008,-9.269275c0.068494,-0.037708 0.051371,-0.071988 -0.027398,-0.092556c0.75001,-0.435354 -8.643954,-0.020568 -12.876889,5.49849c-1.133577,0.161115 -2.691818,-0.164543 -4.434992,-0.164543c-2.184962,0 -3.900738,0.239959 -5.489801,0.641033c-0.171235,0.044564 -0.417814,0.037708 -0.712339,-0.003428c-0.445212,-0.329087 -1.109604,-0.877565 -1.828792,-1.590586c0.551377,-0.617038 1.109604,-1.220363 1.695229,-1.803121c8.017233,-8.028344 19.075604,-12.98864 31.308649,-12.992068z" stroke-opacity="null" stroke-width="0" fill="#e24444"/>
  <path stroke="#000000" id="svg_6" d="m491.356532,124.204913c-7.933537,-7.121105 -25.914972,1.424221 -35.831893,7.195671c-2.844098,-0.447399 -5.826659,-0.689741 -8.936455,-0.689741c-12.532742,0 -22.648002,3.672402 -30.334551,10.599634c-8.741859,7.974892 -13.588052,18.417936 -13.588052,30.486531c0,0.104393 0.003742,0.208786 0.003742,0.313179c12.300724,-19.200885 31.217718,-29.043668 36.232312,-31.642312c0.793354,-0.369104 1.264875,0.577891 0.527655,0.943267c-0.056134,0.15659 -0.056134,0 0,0c-8.434996,5.033242 -24.077535,19.607272 -34.226474,40.586569l-0.011227,-0.026098c-6.425416,13.224376 -11.851656,31.798902 -0.999177,38.618012c8.221689,5.152548 22.939896,-0.924625 34.784067,-8.642262c2.859067,0.402659 5.864081,0.615174 9.037496,0.615174c21.854648,0 37.186581,-12.016398 42.657728,-29.543264l-30.020203,-0.052197c-1.261133,6.192751 -5.478631,9.499777 -12.061221,9.499777c-8.270338,0 -13.954791,-4.515004 -14.325273,-14.958048l56.986743,-0.052197c0.104783,-2.154973 -0.157174,-3.672402 -0.157174,-5.353878c0,-19.577446 -11.761842,-34.8785 -30.892144,-39.755152c7.787589,-4.824455 22.356107,-11.964202 29.369054,-6.267318c5.265324,4.250293 2.368834,13.17218 1.103959,16.844582c-0.209565,0.946995 0.898136,1.103585 1.107701,0.212515c2.627048,-6.602867 3.420402,-15.472558 -0.426615,-18.932445zm-55.108141,87.280138c-9.239576,5.499282 -21.978142,9.466223 -28.212704,4.805814c-4.651597,-3.485986 -2.604595,-12.929838 1.489409,-22.138806c2.484844,3.6985 5.59464,7.031625 9.254545,9.8055c4.947234,3.705957 10.758923,6.215121 17.468749,7.527492zm-2.088167,-47.088771c0.157174,-9.078477 6.687373,-13.011862 13.535661,-13.011862c7.215028,0 13.060397,4.1459 13.060397,13.011862l-26.596059,0z" stroke-opacity="null" stroke-width="0" fill="#5794d1"/>
  <path id="svg_7" d="m-332.856016,53.244092c-0.165282,-0.00955 -0.539895,0.00191 -0.746497,0.00965c-0.059252,-0.0006 -0.121389,-0.000925 -0.186176,-0.000925c-0.261099,0 -0.471833,0.004925 -0.63197,0.014215c-0.182122,0.010695 -0.283084,0.0247 -0.283084,0.040885c0,0.00014 0.000078,0.00028 0.000078,0.00042c0.256265,-0.02575 0.650369,-0.03895 0.75484,-0.042435c0.016528,-0.000495 0.026352,0.000775 0.010993,0.001265c-0.001169,0.00021 -0.001169,0 0,0c-0.175729,0.00675 -0.501615,0.026295 -0.713051,0.05443l-0.000234,-0.000035c-0.133863,0.017735 -0.246909,0.042645 -0.020816,0.05179c0.171285,0.00691 0.477914,-0.00124 0.724668,-0.01159c0.059564,0.00054 0.122168,0.000825 0.188281,0.000825c0.455305,0 0.77472,-0.016115 0.888702,-0.03962l-0.625421,-0.00007c-0.026274,0.008305 -0.114138,0.01274 -0.251275,0.01274c-0.172299,0 -0.290725,-0.006055 -0.298443,-0.02006l1.187223,-0.00007c0.002183,-0.00289 -0.003274,-0.004925 -0.003274,-0.00718c0,-0.026255 -0.245038,-0.046775 -0.643586,-0.053315c0.162241,-0.00647 0.465752,-0.016045 0.611855,-0.008405c0.109694,0.0057 0.049351,0.017665 0.022999,0.02259c-0.004366,0.00127 0.018711,0.00148 0.023077,0.000285c0.05473,-0.008855 0.071258,-0.02075 -0.008888,-0.02539zm-1.148086,0.11705c-0.192491,0.007375 -0.457878,0.012695 -0.587764,0.006445c-0.096908,-0.004675 -0.054262,-0.01734 0.031029,-0.02969c0.051768,0.00496 0.116555,0.00943 0.192803,0.01315c0.103067,0.00497 0.224144,0.008335 0.363932,0.010095zm-0.043503,-0.06315c0.003274,-0.012175 0.13932,-0.01745 0.281993,-0.01745c0.150313,0 0.272092,0.00556 0.272092,0.01745l-0.554084,0z" fill-opacity="null" stroke-opacity="null" stroke-width="0" stroke="#000000" fill="#5B9BA2"/>
 </g>
</svg>