<svg width="100" height="100" xmlns="http://www.w3.org/2000/svg">
 <!-- Created with Method Draw - http://github.com/duopixel/Method-Draw/ -->

 <g>
  <title>background</title>
  <rect x="-1" y="-1" width="102" height="102" id="canvas_background" fill="#ddd"/>
  <g id="canvasGrid" display="none">
   <rect id="svg_2" width="100%" height="100%" x="0" y="0" stroke-width="0" fill="url(#gridpattern)"/>
  </g>
 </g>
 <g>
  <title>Layer 1</title>
  <path id="svg_4" d="m63.72743,48.337084c-1.609229,-2.607653 -3.578006,-4.71882 -5.552829,-6.195664c-2.304309,1.513773 -5.110832,2.435548 -8.170488,2.435548c-3.065663,0 -5.876224,-0.923572 -8.17647,-2.435548c-1.974819,1.476843 -3.945607,3.588011 -5.558786,6.195664c-3.744751,6.054222 -4.156582,12.26431 -0.922166,13.874503c1.448508,0.725341 2.967247,0.184714 4.536277,-1.171396c-0.275229,1.37501 -0.435958,2.865342 -0.435958,4.424187c0,6.925553 2.999416,12.535539 6.69587,12.535539c2.227977,0 3.330892,-2.042722 3.861233,-5.170285c0.528385,3.127563 1.631291,5.170285 3.851193,5.170285c3.702528,0 6.701972,-5.609986 6.701972,-12.535539c0,-1.558848 -0.160782,-3.049178 -0.441993,-4.424187c1.573011,1.356109 3.089753,1.896736 4.542282,1.171396c3.232425,-1.610193 2.814512,-7.820283 -0.930135,-13.874503l-0.000002,0zm-13.727271,-6.122684c6.219719,0 11.264236,-4.5251 11.264236,-10.107151s-5.044517,-10.107164 -11.264236,-10.107164c-6.221835,0 -11.270336,4.526 -11.270336,10.107164s5.048501,10.107151 11.270336,10.107151z" fill-opacity="null" stroke-opacity="null" stroke-width="0" stroke="#000" fill="#FFA9A2"/>
 </g>
</svg>