<?xml version="1.0" standalone="no"?><!DOCTYPE svg PUBLIC "-//W3C//DTD SVG 1.1//EN" "http://www.w3.org/Graphics/SVG/1.1/DTD/svg11.dtd"><svg t="1512819489559" class="icon" style="" viewBox="0 0 1024 1024" version="1.1" xmlns="http://www.w3.org/2000/svg" p-id="20938" xmlns:xlink="http://www.w3.org/1999/xlink" width="16" height="16"><defs><style type="text/css"></style></defs><path fill="#c66" d="M775.308965 488.560148c0 13.81975-11.05273 25.015743-24.694425 25.015743L263.401062 513.575892c-13.644765 0-24.697495-11.195993-24.697495-25.015743 0-13.81361 11.05273-25.018813 24.697495-25.018813l487.213477 0C764.256234 463.542358 775.308965 474.747561 775.308965 488.560148zM775.308965 301.148781c0 13.81668-11.05273 25.018813-24.694425 25.018813L263.401062 326.167594c-13.644765 0-24.697495-11.202133-24.697495-25.018813s11.05273-25.018813 24.697495-25.018813l487.213477 0C764.256234 276.130991 775.308965 287.333124 775.308965 301.148781zM932.012959 598.175685c0 64.705698-51.964512 117.337405-115.841332 117.337405L706.637955 715.51309l0 168.06474L492.01176 715.51309 207.192899 715.51309c-63.87682 0-115.841332-52.631708-115.841332-117.337405L91.351568 213.420741c0-64.702628 51.964512-117.337405 115.841332-117.337405l608.979752 0c63.87682 0 115.841332 52.635801 115.841332 117.337405L932.013983 598.175685zM816.172651 46.048779l-608.979752 0c-91.114161 0-165.237345 75.082022-165.237345 167.371962l0 384.754944c0 92.289939 74.123184 167.368892 165.237345 167.368892l267.957845 0 280.887318 219.958644L756.038062 765.543553l60.134589 0c91.111091 0 165.237345-75.078952 165.237345-167.368892L981.409996 213.420741C981.408973 121.130801 907.282718 46.048779 816.172651 46.048779z" p-id="20939"></path></svg>