<?xml version="1.0" standalone="no"?><!DOCTYPE svg PUBLIC "-//W3C//DTD SVG 1.1//EN" "http://www.w3.org/Graphics/SVG/1.1/DTD/svg11.dtd"><svg t="1512896120122" class="icon" style="" viewBox="0 0 1024 1024" version="1.1" xmlns="http://www.w3.org/2000/svg" p-id="5751" xmlns:xlink="http://www.w3.org/1999/xlink" width="16" height="16"><defs><style type="text/css"></style></defs><path fill="#c66" d="M983.466569 315.122508a511.643545 511.643545 0 0 0-276.460302-276.396307 516.891172 516.891172 0 0 0-392.29205 0A512.795463 512.795463 0 0 0 38.317911 315.122508a519.514985 519.514985 0 0 0 0 391.204126 511.963523 511.963523 0 0 0 276.396306 276.396307 516.891172 516.891172 0 0 0 392.29205 0 510.811605 510.811605 0 0 0 276.460302-276.396307 516.507199 516.507199 0 0 0 0-391.204126z m-251.886053 302.058478H493.06951a36.157424 36.157424 0 0 1-22.846373-8.063426 29.75788 29.75788 0 0 1-15.102923-27.582034V230.45654c0-41.277059 64.635395-41.277059 64.635394 0v315.433525h211.760912c18.94265 0 35.709456 16.70281 35.709456 35.709456a35.197492 35.197492 0 0 1-35.64546 35.581465z" p-id="5752"></path></svg>