<?xml version="1.0" standalone="no"?><!DOCTYPE svg PUBLIC "-//W3C//DTD SVG 1.1//EN" "http://www.w3.org/Graphics/SVG/1.1/DTD/svg11.dtd"><svg t="1512893607073" class="icon" style="" viewBox="0 0 1024 1024" version="1.1" xmlns="http://www.w3.org/2000/svg" p-id="1029" xmlns:xlink="http://www.w3.org/1999/xlink" width="16" height="16"><defs><style type="text/css"></style></defs><path fill="#c66" d="M781.824 313.856c-29.696-28.672-45.056-32.768-49.664-31.232-4.608 1.536-4.096 15.36-4.096 15.36-5.632 176.128-103.424 202.24-103.424 202.24 66.048-289.792-128.512-421.888-147.968-433.152-19.456-11.264-30.72-16.896-44.544-16.896-13.824 0-16.896 34.304-16.896 34.304-6.656 179.712-56.32 206.848-159.232 290.304-100.352 81.92-100.352 210.944-100.352 210.944 0 274.944 233.984 345.088 249.344 344.064 15.36-1.024 6.656-20.48 6.656-20.48-58.368-181.76 3.584-264.192 3.584-264.192 24.064 163.84 146.432 271.872 146.432 271.872 36.864 39.936 65.536 24.064 65.536 24.064 18.944-7.168 211.968-59.904 260.608-260.096 49.152-201.728-76.288-338.432-105.984-367.104z" p-id="1030"></path></svg>