<?xml version="1.0" standalone="no"?><!DOCTYPE svg PUBLIC "-//W3C//DTD SVG 1.1//EN" "http://www.w3.org/Graphics/SVG/1.1/DTD/svg11.dtd"><svg t="1514874050153" class="icon" style="" viewBox="0 0 1024 1024" version="1.1" xmlns="http://www.w3.org/2000/svg" p-id="5138" xmlns:xlink="http://www.w3.org/1999/xlink" width="16" height="16"><defs><style type="text/css"></style></defs><path d="M727.908848 48.407273c-85.488485 0-164.770909 43.008-217.398303 113.788121-52.099879-70.749091-131.909818-113.788121-217.398303-113.788121-153.972364 0-279.117576 136.998788-279.117575 305.120969 0 100.196848 44.714667 170.97697 80.95806 227.576243 104.727273 164.739879 368.515879 369.105455 379.87297 377.607757a57.157818 57.157818 0 0 0 71.307636 0c11.29503-8.502303 274.556121-213.426424 379.87297-377.607757 36.212364-56.599273 80.92703-127.379394 80.92703-227.576243 0.062061-168.153212-125.052121-305.12097-279.024485-305.120969z m126.200243 530.990545c-96.783515 135.881697-301.707636 290.971152-311.916606 298.325334-9.619394 7.354182-20.945455 11.326061-31.68194 11.32606-11.326061 0-22.062545-3.382303-31.712969-11.32606-10.20897-7.354182-211.161212-164.150303-311.916606-303.972849-32.271515-50.982788-83.781818-114.377697-83.781818-203.80703 0-150.590061 83.781818-256.465455 221.339151-256.465455 76.427636 0 159.650909 73.045333 206.072242 136.440243 46.979879-63.394909 129.644606-136.440242 206.072243-136.440243 138.115879 0 227.576242 105.875394 227.576242 256.465455 0 89.429333-57.188848 159.092364-90.049939 209.454545z" p-id="5139" fill="#c66"></path></svg>