<?xml version="1.0" standalone="no"?><!DOCTYPE svg PUBLIC "-//W3C//DTD SVG 1.1//EN" "http://www.w3.org/Graphics/SVG/1.1/DTD/svg11.dtd"><svg t="1512820036897" class="icon" style="" viewBox="0 0 1024 1024" version="1.1" xmlns="http://www.w3.org/2000/svg" p-id="37747" xmlns:xlink="http://www.w3.org/1999/xlink" width="16" height="16"><defs><style type="text/css"></style></defs><path d="M542.72 1010.347C535.893 1020.587 522.24 1024 512 1024c-23.893 0-40.96-17.067-44.373-37.547l-47.787-307.2h-204.8c-20.48 0-37.547-13.653-44.373-34.133-3.414-13.653-20.48-116.053 95.573-184.32 3.413 0 3.413-3.413 6.827-3.413 3.413-3.414 10.24-6.827 13.653-10.24 23.893-17.067 40.96-68.267 47.787-122.88 3.413-54.614-6.827-102.4-27.307-122.88-3.413-3.414-6.827-10.24-13.653-13.654-17.067-17.066-47.787-44.373-47.787-88.746 0-51.2 37.547-92.16 88.747-98.987h344.746c27.307 0 51.2 10.24 71.68 27.307 20.48 17.066 30.72 44.373 30.72 68.266 0 44.374-30.72 71.68-51.2 88.747L716.8 197.973c-20.48 20.48-27.307 54.614-27.307 98.987 3.414 64.853 27.307 126.293 47.787 146.773 6.827 6.827 20.48 13.654 20.48 17.067 116.053 68.267 95.573 170.667 92.16 184.32-3.413 20.48-23.893 34.133-44.373 34.133H587.093c-13.653 0-23.893-10.24-23.893-20.48 0-13.653 10.24-20.48 23.893-20.48h218.454c0-6.826 17.066-81.92-75.094-136.533-3.413 0-17.066-13.653-23.893-20.48-34.133-27.307-61.44-105.813-64.853-177.493 0-40.96 6.826-98.987 40.96-133.12 3.413-3.414 10.24-10.24 17.066-13.654 20.48-20.48 37.547-34.133 37.547-58.026 0-13.654-6.827-27.307-17.067-37.547-10.24-10.24-23.893-17.067-37.546-17.067H341.333c-30.72 3.414-51.2 27.307-51.2 54.614 0 20.48 17.067 37.546 34.134 54.613l17.066 17.067c30.72 30.72 44.374 88.746 37.547 157.013-3.413 54.613-23.893 126.293-64.853 157.013l-10.24 10.24c-3.414 3.414-3.414 3.414-6.827 3.414 0 0-3.413 3.413-6.827 3.413-88.746 54.613-75.093 129.707-75.093 136.533h225.28c10.24 0 20.48 6.827 20.48 20.48l47.787 324.267 40.96-252.587c3.413-13.653 13.653-20.48 23.893-17.066 13.653 3.413 20.48 13.653 17.067 23.893l-40.96 252.587c3.413 6.826 0 13.653-6.827 20.48z" p-id="37748" fill="#c66"></path></svg>