<?xml version="1.0" standalone="no"?><!DOCTYPE svg PUBLIC "-//W3C//DTD SVG 1.1//EN" "http://www.w3.org/Graphics/SVG/1.1/DTD/svg11.dtd"><svg t="1512898450853" class="icon" style="" viewBox="0 0 1024 1024" version="1.1" xmlns="http://www.w3.org/2000/svg" p-id="13338" xmlns:xlink="http://www.w3.org/1999/xlink" width="16" height="16">
    <defs><style type="text/css"></style></defs>
    <path d="M513.96608 229.12512c-218.07104 0-394.87488 177.94048-394.87488 397.44S295.89504 1024 513.96608 1024s394.91584-177.94048 394.91584-397.44-176.77824-397.44-394.91584-397.44z m203.07968 361.984l-77.85472 76.38528 18.36544 107.86304c6.18496 36.20352-14.38208 52.04992-47.31904 34.61632l-96.256-50.93376-96.2304 50.944c-32.30208 17.08544-53.61664 2.31936-47.32928-34.61632l18.3808-107.86304-77.85472-76.40064c-26.14272-25.63584-18.75968-50.5856 18.08896-55.9872l107.59168-15.744 48.128-98.11968c16.15872-32.95232 42.04544-33.60768 58.51648 0l48.128 98.11968 107.58656 15.744c36.11648 5.27872 44.73344 29.8496 18.0736 55.9872zM883.13856 0H638.976a27.84256 27.84256 0 0 0-26.84416 21.56544l-75.264 149.36576s161.15712 9.77408 256.36352 102.02112l112.41984-228.29568A27.8784 27.8784 0 0 0 911.36 28.3904 28.30848 28.30848 0 0 0 883.13856 0zM487.12704 170.94144L411.87328 21.57056A27.86304 27.86304 0 0 0 385.024 0H140.84608A28.29824 28.29824 0 0 0 112.64 28.39552a27.81696 27.81696 0 0 0 5.7088 16.26624l112.41984 228.30592c95.20128-92.25728 256.3584-102.02624 256.3584-102.02624z" fill="#c66" p-id="13339"></path>
</svg>