<?xml version="1.0" standalone="no"?><!DOCTYPE svg PUBLIC "-//W3C//DTD SVG 1.1//EN" "http://www.w3.org/Graphics/SVG/1.1/DTD/svg11.dtd"><svg t="1513132410646" class="icon" style="" viewBox="0 0 1443 1024" version="1.1" xmlns="http://www.w3.org/2000/svg" p-id="9637" xmlns:xlink="http://www.w3.org/1999/xlink" width="22.546875" height="16"><defs><style type="text/css"></style></defs><path d="M1439.014597 32.539483V26.927884l-1.130114-1.130114V21.316284l-1.130114-1.130114v-1.130113l-1.130113-1.130114h-1.130114l-1.130114-1.130114v-1.091144l-1.130114-1.130114-2.260227-2.260228v-1.091144l-1.130114-1.130114v-2.221258h-3.351372l-1.130114-1.130114h-2.260227l-1.130114-1.130114v-1.130113h-1.130114V3.195494H1418.633579l-1.130113-1.130114h-1.130114V1.130114h-4.481486V0H1403.045803l-1.130114 1.130114h-1.130114v1.130114h-2.260227l-1.130114 1.130113H1395.251915L22.592327 526.399208A34.448986 34.448986 0 0 0 2.367187 571.292004 37.566541 37.566541 0 0 0 23.527593 591.634053l411.906991 164.996613 42.632568 236.817292a35.072497 35.072497 0 0 0 39.281197 28.057998 30.279256 30.279256 0 0 0 19.095026-11.223199l152.6433-152.6433 310.8982 124.702211a35.072497 35.072497 0 0 0 44.892796-17.964913L1435.624256 50.504395l1.130113-1.130113V37.020969zM461.427201 691.356852l-332.214484-132.496099L1184.232392 155.994672z m71.82068 223.372836l-22.602276-130.196903 109.114435 43.762683z m462.411386-8.962972l-460.151159-184.091639L1324.522379 138.02976z m0 0" fill="#fff" p-id="9638"></path></svg>