<?xml version="1.0" standalone="no"?><!DOCTYPE svg PUBLIC "-//W3C//DTD SVG 1.1//EN" "http://www.w3.org/Graphics/SVG/1.1/DTD/svg11.dtd"><svg t="1513081208624" class="icon" style="" viewBox="0 0 1178 1024" version="1.1" xmlns="http://www.w3.org/2000/svg" p-id="1661" xmlns:xlink="http://www.w3.org/1999/xlink" width="18.40625" height="16"><defs><style type="text/css"></style></defs><path fill="#c66" d="M425.826788 133.186595C452.479513 103.016678 476.790848 89.6 517.698501 89.6L658.336814 89.6C696.07339 89.6 725.010109 105.629355 745.896832 129.259719L799.282698 189.643285C822.077635 215.499286 875.066931 242.05447 914.336814 242.05447L991.810499 242.05447C1030.485494 242.05447 1061.199974 271.172514 1061.199974 305.826248L1061.199974 870.628224C1061.199974 905.239752 1030.58476 934.283776 991.69557 934.400174L183.389448 934.4C181.913163 934.4 180.444329 934.357699 178.983995 934.273556 142.237744 932.156196 113.999974 903.822612 113.999974 870.628224L113.999974 305.826248C113.999974 271.172514 144.714457 242.05447 183.389448 242.05447L259.138501 242.05447C298.14971 242.05447 352.592759 216.059931 373.909775 191.922772L425.826788 133.186595ZM259.138501 165.25447 183.389448 165.25447C103.188627 165.25447 37.199974 227.813246 37.199974 305.826248L37.199974 870.628224C37.199974 945.462328 98.069689 1006.538578 174.566028 1010.946376 177.497211 1011.115274 180.43931 1011.2 183.389448 1011.2L991.810499 1011.2C1072.214482 1010.959519 1137.999974 948.550175 1137.999974 870.628224L1137.999974 305.826248C1137.999974 227.813246 1072.01132 165.25447 991.810499 165.25447L914.336814 165.25447C898.338939 165.25447 865.781289 148.938451 856.855685 138.814279L803.437251 78.393818C769.160576 39.614618 720.753946 12.8 658.336814 12.8L517.698501 12.8C452.165396 12.8 408.33231 36.990131 368.276605 82.331739L316.355898 141.072098C309.224072 149.147426 275.489427 165.25447 259.138501 165.25447Z" p-id="1662"></path><path fill="#c66" d="M829.149972 561.777777C829.149972 433.239609 719.790387 329.955555 585.949972 329.955555 452.109561 329.955555 342.749975 433.239609 342.749975 561.777777 342.749975 690.315945 452.109561 793.6 585.949972 793.6 719.790387 793.6 829.149972 690.315945 829.149972 561.777777ZM419.549975 561.777777C419.549975 476.667659 493.574555 406.755555 585.949972 406.755555 678.325396 406.755555 752.349972 476.667659 752.349972 561.777777 752.349972 646.887895 678.325396 716.8 585.949972 716.8 493.574555 716.8 419.549975 646.887895 419.549975 561.777777Z" p-id="1663"></path></svg>